<?xml version="1.0" encoding="utf-8"?>
<!-- Generator: Adobe Illustrator 16.0.0, SVG Export Plug-In . SVG Version: 6.00 Build 0)  -->
<!-- license: CC0 1.0 via https://commons.wikimedia.org/wiki/File:Red_Cat_Vector.svg -->
<!DOCTYPE svg PUBLIC "-//W3C//DTD SVG 1.1//EN" "http://www.w3.org/Graphics/SVG/1.1/DTD/svg11.dtd">
<svg version="1.1" id="Layer_1" xmlns="http://www.w3.org/2000/svg" xmlns:xlink="http://www.w3.org/1999/xlink" x="0px" y="0px"
	 width="100px" height="100px" viewBox="0 0 100 100" enable-background="new 0 0 100 100" xml:space="preserve">
<path fill="#E42426" d="M88.967,50.963c2.916,0.809,4.982,2.775,4.982,2.775s-2.305-1.107-5.221-1.918
	c-1.112-0.307-2.17-0.465-3.047-0.564c0.043,0.553,0.068,1.109,0.068,1.671c0,14.986-15.854,27.136-35.409,27.136
	S14.933,67.914,14.933,52.927c0-0.577,0.026-1.147,0.072-1.716c-0.946,0.1-2.165,0.252-3.458,0.609
	c-2.915,0.811-5.22,1.918-5.22,1.918s2.066-1.967,4.983-2.775c1.429-0.396,2.767-0.544,3.774-0.542
	c0.101-0.844,0.251-1.676,0.45-2.495c-0.904-0.073-1.91-0.114-2.973-0.066c-3.982,0.177-7.266,0.918-7.266,0.918
	s3.232-1.913,7.213-2.09c1.203-0.054,2.333,0.004,3.326,0.126c0.626-2.086,1.567-4.08,2.78-5.951
	c-0.395-0.548-0.766-1.16-1.104-1.844c-2.981-6.039-6.504-15.734-2.99-18.494c3.227-2.533,11.699,3.609,17.587,9.134
	c5.325-2.456,11.563-3.87,18.231-3.87c6.479,0,12.547,1.334,17.77,3.662c5.879-5.471,14.179-11.428,17.365-8.926
	c3.514,2.76-0.01,12.455-2.99,18.494c-0.236,0.48-0.491,0.923-0.758,1.335c1.364,1.997,2.414,4.139,3.099,6.39
	c0.823-0.071,1.721-0.098,2.661-0.056c3.981,0.178,7.215,2.09,7.215,2.09s-3.285-0.741-7.266-0.918
	c-0.807-0.036-1.58-0.021-2.301,0.02c0.205,0.835,0.359,1.686,0.463,2.548C86.55,50.462,87.723,50.619,88.967,50.963z"/>
<path fill="#C72127" d="M60.08,57.383c-1.334,1.625-2.926,2.547-4.88,2.58c-2.021,0.033-3.677-0.887-4.995-2.382
	c-0.585,0.494-2.715,2.177-4.581,2.206c-1.736,0.027-5.773-2.404-5.773-2.404c-0.292,0.842,1.376,1.836,1.828,2.268
	c0.412,3.945,1.463,8.207,4.037,11.397c0.369-0.228,0.593-0.364,0.961-0.593c0.079,0.759,0.139,1.354,0.195,1.896
	c2.198,2.291,5.553,2.094,7.353,0.035c0-0.521,0-1.109,0-1.813c0.448,0.271,0.774,0.47,1.156,0.701
	c2.684-3.555,3.791-7.569,3.936-11.787C59.577,58.779,60.484,58.463,60.08,57.383z"/>
</svg>
